<svg width="80" height="40" xmlns="http://www.w3.org/2000/svg" fill="none">

 <g>
  <title>Layer 1</title>
  <path id="svg_1" fill-opacity="0.91" fill="black" d="m58.8793,30.5658l2.311,-5.8871l6.6728,0l-3.1674,-8.9305l3.9608,-10.08914l11.3436,30.34094l-8.3655,0l-1.9383,-5.4342l-10.817,0z"/>
  <path id="svg_2" fill="#5A0FC8" d="m51.7383,34.3409l12.1435,-30.3409l-8.0506,0.00065l-8.3071,19.60695l-5.9075,-19.60695l-6.1878,0l-6.3424,19.60695l-4.4733,-8.935l-4.048,12.5632l4.1102,7.1051l7.9229,0l5.7318,-17.5832l5.4643,17.5832l7.944,0z"/>
  <path id="svg_3" fill-opacity="0.91" fill="black" d="m7.64194,23.9249l4.95886,0c1.5022,0 2.8396,-0.1686 4.0127,-0.5066l1.2823,-3.9797l3.5842,-11.12421c-0.2726,-0.43551 -0.5843,-0.8484 -0.9352,-1.23674c-1.8402,-2.0522 -4.5329,-3.07765 -8.0774,-3.07765l-12.4674,0l0,30.341l7.64194,0l0,-10.4161zm6.56366,-12.9451c0.7191,0.7289 1.0783,1.7046 1.0783,2.9258c0,1.2316 -0.3162,2.2079 -0.9481,2.9297c-0.6933,0.8018 -1.9691,1.2031 -3.828,1.2031l-2.86586,0l0,-8.15126l2.88706,0c1.7325,0 2.9582,0.36376 3.6766,1.09266z"/>
 </g>
</svg>